<?xml version="1.0" encoding="iso-8859-1"?>
<!-- Uploaded to: SVG Repo, www.svgrepo.com, Generator: SVG Repo Mixer Tools -->
<svg height="800px" width="800px" version="1.1" id="Layer_1" xmlns="http://www.w3.org/2000/svg" xmlns:xlink="http://www.w3.org/1999/xlink" 
	 viewBox="0 0 512 512" xml:space="preserve">
<path style="fill:#8EC1ED;" d="M74.95,380.855c0,0-6.117,65.163-14.999,123.44c-1.145,7.512,10.231,10.475,15.026,4.58
	l32.577-40.047l53.001,22.657c7.459,3.188,16.53-6.319,10.711-11.968C148.916,457.815,104.287,411.123,74.95,380.855z"/>
<g style="opacity:0.24;">
	<path style="fill:#315591;" d="M171.266,479.516c-22.35-21.7-66.978-68.392-96.315-98.661c0,0-1.579,0,4.45,16.705
		c25.794,26.729,48.126,60.958,64.731,77.082c3.005,2.918,2.035,6.859-0.628,9.554l17.05,7.288
		C168.013,494.673,177.085,485.165,171.266,479.516z"/>
</g>
<g>
	<path style="fill:#315591;" d="M262.965,35.22c0,0-45.948-65.451-135.273-17.905c-2.134,1.137-1.756,4.303,0.594,4.876
		c14.259,3.476,43.837,14.996,23.88,48.613C152.164,70.803,200.842,36.326,262.965,35.22z"/>
	<path style="fill:#315591;" d="M285.212,168.584c-10.418,52.43-98.065,61.269-111.278,61.269c-9.458,0,34.034-46.746,34.38-46.876
		c0,0,15.379-8.6,39.687-11.249C272.31,169.077,285.212,168.584,285.212,168.584z"/>
	<path style="fill:#315591;" d="M317.316,169.578c0,0-3.281,32.863-33.718,52.913c-1.416,0.932-3.337,0.326-3.963-1.249
		c-2.16-5.427-6.965-16.983-11.505-24.33c0,0,13.205-10.489,14.775-26.98C282.904,169.931,305.891,169.225,317.316,169.578z"/>
</g>
<path style="fill:#8EC1ED;" d="M82.651,402.427c-26.077-37.999-41.336-84.002-41.336-133.57
	c0-130.528,105.815-236.343,236.343-236.343c46.96,0,90.722,13.697,127.507,37.311c0,0,36.324,22.927,32.288,64.741
	c0,0,0.289,13.842,18.744,22.781c18.455,8.939,14.679,26.51,12.977,30.567c-1.018,2.426-4.614,22.205-48.157-0.576
	s-137.94-17.303-137.94-17.303c-111.585,0-202.042,90.457-202.042,202.042c0,10.734,0.837,21.273,2.45,31.554L82.651,402.427z"/>
<g style="opacity:0.23;">
	<path style="fill:#315591;" d="M421.015,160.408c-43.544-22.782-137.94-17.302-137.94-17.302
		c-111.585,0-202.042,90.457-202.042,202.042c0,4.543,0.159,9.049,0.455,13.518c6.907-105.328,94.513-188.625,201.588-188.625
		c0,0,94.396-5.478,137.94,17.303s47.139,3.003,48.157,0.576c1.244-2.966,3.587-13.151-2.448-21.909
		C462.712,171.302,451.938,176.586,421.015,160.408z"/>
</g>
<circle style="fill:#315591;" cx="384.35" cy="122.819" r="12.085"/>
</svg>